<svg xmlns="http://www.w3.org/2000/svg" width="52" height="52" viewBox="0 0 52 52"><path d="M25.543 16.904h11.715c.46 0 .462.002.462.472v20.272c0 1.25-.92 2.208-2.124 2.216-.694.004-1.39.012-2.084-.004-.259-.006-.334.08-.332.348.01 1.799.005 3.598.004 5.397 0 .677-.04 1.341-.356 1.963-.584 1.149-1.843 1.744-3.087 1.433-1.164-.292-2.031-1.45-2.032-2.718l-.001-5.92c0-.497-.002-.498-.466-.498h-3.465c-.38 0-.39.009-.391.418-.002 1.984 0 3.967 0 5.95-.001 1.443-1.067 2.704-2.399 2.837a2.773 2.773 0 0 1-3.004-2.286 5.1 5.1 0 0 1-.072-.884 586.73 586.73 0 0 1 .003-5.643c.001-.305-.077-.41-.379-.399-.664.023-1.33.009-1.996.006-1.27-.004-2.206-.982-2.206-2.31v-20.18c0-.468 0-.47.465-.47h11.745M20.357 8.7c-.776-.004-1.377.603-1.376 1.39 0 .773.626 1.424 1.366 1.423.73-.002 1.33-.63 1.345-1.41.015-.755-.598-1.4-1.335-1.403m10.447 2.813c.735 0 1.365-.66 1.363-1.431 0-.77-.6-1.381-1.357-1.382-.772-.001-1.365.61-1.364 1.407 0 .745.638 1.405 1.358 1.406M25.5 15.027H13.786c-.478 0-.522-.052-.446-.55.334-2.2 1.269-4.081 2.747-5.678a11.907 11.907 0 0 1 3.254-2.484c.362-.189.36-.195.126-.552l-1.849-2.802c-.066-.1-.135-.202-.186-.311-.092-.196-.079-.385.102-.518.173-.126.34-.07.475.078.312.342.531.757.79 1.14.486.718.961 1.443 1.43 2.173.13.203.256.255.484.167 1.796-.691 3.656-.958 5.563-.855 1.354.074 2.676.348 3.95.843.263.103.401.038.551-.196.633-.983 1.282-1.956 1.927-2.931.072-.11.145-.22.23-.317.148-.166.33-.242.521-.092.19.148.19.357.071.547-.283.454-.58.898-.874 1.344-.377.572-.757 1.143-1.136 1.714-.246.37-.249.375.129.572a11.864 11.864 0 0 1 3.414 2.663 10.492 10.492 0 0 1 2.58 5.504c.074.493.031.541-.456.541H25.5M6.208 25.386c0-1.91-.006-3.821.002-5.732.008-1.638 1.37-2.973 2.9-2.859 1.44.107 2.572 1.362 2.576 2.904.01 3.79.011 7.581 0 11.372-.005 1.561-1.193 2.856-2.68 2.893-1.657.04-2.796-1.404-2.797-2.846v-5.732m38.561-.002v5.58c0 1.624-1.022 2.86-2.565 2.991-1.297.11-2.576-.818-2.857-2.364a4.23 4.23 0 0 1-.06-.762c.002-3.689-.001-7.377.003-11.066.001-1.671 1.238-2.988 2.778-2.973 1.404.014 2.66 1.239 2.686 2.709.036 1.961.01 3.923.01 5.885h.006z" fill="#63727D" fill-rule="evenodd"/></svg>