<svg xmlns="http://www.w3.org/2000/svg" width="52" height="52" viewBox="0 0 52 52"><g fill="#63727D" fill-rule="evenodd"><path d="M38.882 27.801c-.052-5.888 4.696-8.752 4.913-8.885-2.689-4.025-6.856-4.575-8.32-4.619-3.501-.378-6.896 2.15-8.68 2.15-1.818 0-4.564-2.113-7.523-2.051-3.808.06-7.371 2.324-9.325 5.839-4.032 7.166-1.025 17.698 2.838 23.491 1.933 2.839 4.191 6.005 7.147 5.894 2.892-.121 3.972-1.893 7.461-1.893 3.458 0 4.472 1.893 7.487 1.82 3.103-.048 5.057-2.849 6.922-5.713 2.233-3.248 3.13-6.454 3.166-6.619-.071-.024-6.026-2.356-6.086-9.414"/><path d="M33.345 10.93c1.566-2.019 2.637-4.765 2.34-7.552-2.266.103-5.1 1.616-6.732 3.59-1.444 1.74-2.733 4.592-2.4 7.274 2.545.196 5.159-1.325 6.792-3.312"/></g></svg>